<?xml version="1.0" encoding="utf-8"?>
<!-- Generator: Adobe Illustrator 19.2.0, SVG Export Plug-In . SVG Version: 6.00 Build 0)  -->
<svg version="1.1" id="Layer_1" xmlns="http://www.w3.org/2000/svg" xmlns:xlink="http://www.w3.org/1999/xlink" x="0px" y="0px"
	 viewBox="0 0 115 40" style="enable-background:new 0 0 115 40;" xml:space="preserve">
<style type="text/css">
	.st0{fill:#FFFFFF;}
</style>
<g>
	<g>
		<path class="st0" d="M40.6,23.5c4.5-0.9,8.8-0.4,12.6,2.3C60.7,13.2,70.5,5.6,81.7,1c-10,8.2-18.5,21.6-25.9,38.9
			C51.6,32.7,46.4,27.5,40.6,23.5z"/>
		<path class="st0" d="M53.2,25.8c-3.8-2.7-8.1-3.1-12.6-2.3c5.8,4,10.9,9.2,15.2,16.4c1-2.4,4.4-9.6,5.5-11.7
			C58.8,31.5,56.2,27.9,53.2,25.8z"/>
	</g>
	<path class="st0" d="M15.6,27.3c-0.5,1.3-1.4,2-2.7,2.3c-0.5,0.1-1.1,0-1.7-0.4c-0.8-0.4-1.6-0.5-2.4-0.3c-0.7,0.3-0.8,0.8,0,1.4
		c0.5,0.3,1.1,0.4,1.7,0.6c2.3,0.7,3.9,1.4,4.6,2.5c0.7,1.4,0.7,2.8,0,4.1c-0.6,1.1-1.7,1.8-3.2,2.2c-3.2,0.6-6.2-0.2-9-1.9
		c0.3-1,0.9-1.8,2.2-2.1c1-0.1,1.9,0.1,2.7,0.5c1,0.3,2,0.5,2.8,0.1c1-0.6,0.7-1.3-0.4-1.7c-0.5-0.2-1-0.3-1.5-0.4
		c-1.7-0.4-3.2-0.8-4.1-1.7c-1.3-1.5-1.2-3.2-0.2-4.8c0.9-1.5,2.3-1.8,4.1-2.1c2.7-0.3,5.1,0.2,6.6,1.3C15.4,27,15.5,27.1,15.6,27.3
		z"/>
	<path class="st0" d="M78.8,39.9c2.2,0,4.3-1,4.3-2.6V25.7c-2.9,0-4.3,1.3-4.3,2.4V39.9z"/>
	<g>
		<path class="st0" d="M26.3,25.7c2.4-0.1,4,0.6,4.3,2.4v6.7c0,2.3-2.1,4.2-4.3,4.8c-1.4,0.3-3.2,0.3-4.7,0
			c-2.4-0.5-4.2-3.5-4.2-5.4v-8.5c2.4-0.4,4,0.5,4.5,3.1l0,5.2c0,2.8,4.5,2.8,4.4,0.1V25.7z"/>
		<path class="st0" d="M25.2,36c-1.3,0.6-3.3,0-3.3-1.9l0-5.2c-0.5-2.6-2.1-3.5-4.5-3.1v8.5c0,2,1.8,5,4.2,5.4
			c1.6,0.3,3.3,0.3,4.7,0c0.7-0.2,1.4-0.5,2-0.9C28,37.2,26.6,35.9,25.2,36z"/>
	</g>
	<g>
		<path class="st0" d="M109.7,25.7c2.4-0.1,4,0.6,4.3,2.4v6.7c0,2.3-2.1,4.2-4.3,4.8c-1.4,0.3-3.2,0.3-4.7,0
			c-2.4-0.5-4.2-3.5-4.2-5.4v-8.5c2.4-0.4,4,0.5,4.5,3.1l0,5.2c0,2.8,4.5,2.8,4.4,0.1V25.7z"/>
		<path class="st0" d="M108.6,36c-1.3,0.6-3.3,0-3.3-1.9l0-5.2c-0.5-2.6-2.1-3.5-4.5-3.1v8.5c0,2,1.8,5,4.2,5.4
			c1.6,0.3,3.3,0.3,4.7,0c0.7-0.2,1.4-0.5,2-0.9C111.4,37.2,110,35.9,108.6,36z"/>
	</g>
	<g>
		<path class="st0" d="M43.4,35.9c-0.1-0.2-0.3-0.3-0.5-0.3c1.4-1,2.2-2.1,2.3-3.3c0.2-1,0.1-2.1,0-3.1c-0.5-1.8-1.9-3-4.1-3.3h-8.4
			v14.1H37v-3.7h2.2c0.8,2,1.4,3.3,3.1,3.7H46L43.4,35.9z M41.1,31.7c-0.2,0.7-0.5,1-1.4,1.1H37v-3.5h2.4c0.9,0,1.5,0.3,1.6,0.9
			C41.2,30.7,41.2,31.1,41.1,31.7z"/>
		<path class="st0" d="M32.6,39.9H37v-3.7v-3.5v-3.5c0-1.6-1.4-3.5-4.5-3.5V39.9z"/>
		<g>
			<path class="st0" d="M39.4,29.3c0.9,0,1.5,0.3,1.6,0.9c0.1,0.5,0.2,0.9,0,1.5c-0.2,0.7-0.5,1-1.4,1.1H37h-4.5
				c0,1.7,2.4,3.5,3.9,3.5h2.7c2.3,0,2.8-0.2,3.6-0.7c1.4-1,2.2-2.1,2.3-3.3c0.2-1,0.1-2.1,0-3.1c-0.5-1.8-1.9-3-4.1-3.3l-8.4,0
				c2.7,0.2,4.3,1.2,4.5,3.5L39.4,29.3z"/>
		</g>
	</g>
	<g>
		<path class="st0" d="M64.7,25.8v14.1l9.3,0c1.6-0.2,2.7-1.7,2.7-3.3L69,36.6v-2l4.1,0.1c1.2,0,2.6-1.6,2.5-3.5l-6.6,0.1v-2.1
			l4.6,0c1.3,0,2.7-1.4,2.7-3.4L64.7,25.8z"/>
		<path class="st0" d="M69,28.4c0-1.7-0.9-2.5-2.7-2.6l-1.6,0v14.1H69V28.4z"/>
	</g>
	<g>
		<path class="st0" d="M90.1,39.9h-4.2v-14h4.2v5.4l4.3-4.8c0.4-0.4,0.7-0.6,1.3-0.6l3.8,0l-5,5.7l5.5,8.4h-4
			c-0.9,0-1.4-0.6-2.1-1.7l-2.2-3.4l-1.5,1.6V39.9z"/>
		<path class="st0" d="M90.1,39.9h-4.2v-14h4.2v5.4l4.3-4.8c0.4-0.4,0.7-0.6,1.3-0.6l3.8,0l-5,5.7l-2.8,3.3l-1.5,1.6V39.9z"/>
		<polygon class="st0" points="90.1,36.5 90.1,31.2 90.1,25.8 85.9,25.8 85.9,39.9 90.1,39.9 		"/>
	</g>
</g>
</svg>
