<?xml version="1.0" encoding="utf-8"?>
<!-- Generator: Adobe Illustrator 19.2.0, SVG Export Plug-In . SVG Version: 6.00 Build 0)  -->
<svg version="1.1" id="Layer_1" xmlns="http://www.w3.org/2000/svg" xmlns:xlink="http://www.w3.org/1999/xlink" x="0px" y="0px"
	 viewBox="0 0 115 40" style="enable-background:new 0 0 115 40;" xml:space="preserve">
<style type="text/css">
	.st0{fill:#333333;}
</style>
<g>
	<g>
		<path class="st0" d="M39.7,23.2c4.6-0.9,9-0.4,12.9,2.4C60.3,12.6,70.4,4.7,81.9,0c-10.3,8.4-19,22.2-26.6,40
			C50.9,32.6,45.6,27.2,39.7,23.2z"/>
		<path class="st0" d="M52.6,25.5c-3.9-2.8-8.3-3.2-12.9-2.4c5.9,4.1,11.2,9.4,15.7,16.8c1.1-2.4,4.5-9.9,5.6-12.1
			C58.4,31.4,55.7,27.6,52.6,25.5z"/>
	</g>
	<path class="st0" d="M14,27c-0.5,1.3-1.5,2.1-2.7,2.4c-0.5,0.1-1.1,0-1.8-0.4c-0.8-0.4-1.6-0.5-2.5-0.3c-0.8,0.3-0.8,0.8,0,1.4
		c0.6,0.3,1.2,0.4,1.7,0.6c2.3,0.7,4,1.4,4.7,2.6c0.7,1.4,0.7,2.8,0,4.3c-0.6,1.1-1.8,1.8-3.3,2.2c-3.3,0.6-6.3-0.2-9.2-2
		c0.3-1.1,0.9-1.9,2.3-2.2c1-0.1,2,0.1,2.8,0.5c1.1,0.4,2,0.5,2.9,0.2c1-0.6,0.7-1.3-0.5-1.7C8,34.5,7.5,34.3,7,34.2
		c-1.7-0.4-3.3-0.9-4.2-1.8c-1.3-1.6-1.2-3.3-0.2-4.9c1-1.5,2.4-1.9,4.2-2.2c2.8-0.3,5.2,0.2,6.8,1.4C13.7,26.8,13.8,26.9,14,27z"/>
	<path class="st0" d="M78.9,40c2.3,0,4.4-1,4.4-2.7V25.4c-2.9,0-4.4,1.3-4.4,2.5V40z"/>
	<g>
		<path class="st0" d="M25,25.5c2.5-0.1,4.1,0.6,4.4,2.4v6.9c0,2.4-2.1,4.3-4.4,5c-1.5,0.3-3.3,0.3-4.9,0c-2.5-0.5-4.3-3.6-4.3-5.6
			v-8.7c2.4-0.4,4.1,0.5,4.6,3.2l0,5.4c0,2.9,4.7,2.9,4.6,0.1V25.5z"/>
		<path class="st0" d="M23.9,36c-1.4,0.6-3.4,0-3.4-2l0-5.4c-0.5-2.7-2.2-3.6-4.6-3.2v8.7c0,2,1.8,5.1,4.3,5.6
			c1.6,0.3,3.4,0.3,4.9,0c0.7-0.2,1.4-0.5,2-1C26.7,37.2,25.2,35.9,23.9,36z"/>
	</g>
	<g>
		<path class="st0" d="M110.7,25.5c2.5-0.1,4.1,0.6,4.4,2.4v6.9c0,2.4-2.1,4.3-4.4,5c-1.5,0.3-3.3,0.3-4.9,0
			c-2.5-0.5-4.3-3.6-4.3-5.6v-8.7c2.4-0.4,4.1,0.5,4.6,3.2l0,5.4c0,2.9,4.7,2.9,4.6,0.1V25.5z"/>
		<path class="st0" d="M109.6,36c-1.4,0.6-3.4,0-3.4-2l0-5.4c-0.5-2.7-2.2-3.6-4.6-3.2v8.7c0,2,1.8,5.1,4.3,5.6
			c1.6,0.3,3.4,0.3,4.9,0c0.7-0.2,1.4-0.5,2-1C112.4,37.2,110.9,35.9,109.6,36z"/>
	</g>
	<g>
		<path class="st0" d="M42.5,35.9c-0.1-0.2-0.3-0.3-0.5-0.4c1.5-1,2.2-2.1,2.4-3.4c0.2-1,0.1-2.1,0-3.2c-0.5-1.9-1.9-3-4.2-3.4h-8.7
			V40H36v-3.8h2.2c0.8,2.1,1.5,3.4,3.2,3.8h3.7L42.5,35.9z M40.1,31.6c-0.2,0.8-0.5,1-1.5,1.1H36v-3.6h2.5c0.9,0,1.5,0.3,1.7,0.9
			C40.3,30.6,40.3,31,40.1,31.6z"/>
		<path class="st0" d="M31.4,40H36v-3.8v-3.6v-3.6c0-1.6-1.5-3.6-4.6-3.6V40z"/>
		<g>
			<path class="st0" d="M38.5,29.1c0.9,0,1.5,0.3,1.7,0.9c0.1,0.6,0.2,0.9,0,1.5c-0.2,0.8-0.5,1-1.5,1.1H36h-4.6
				c0,1.7,2.5,3.6,4,3.6h2.8c2.3,0,2.9-0.2,3.7-0.7c1.5-1,2.2-2.1,2.4-3.4c0.2-1,0.1-2.1,0-3.2c-0.5-1.9-1.9-3-4.2-3.4l-8.7,0
				c2.7,0.2,4.4,1.3,4.6,3.6L38.5,29.1z"/>
		</g>
	</g>
	<g>
		<path class="st0" d="M64.4,25.5V40l9.5,0c1.6-0.2,2.7-1.8,2.7-3.4l-7.9,0.1v-2.1l4.2,0.1c1.2,0,2.6-1.6,2.6-3.6l-6.8,0.1V29l4.7,0
			c1.3,0,2.8-1.5,2.7-3.5L64.4,25.5z"/>
		<path class="st0" d="M68.8,28.2c0-1.8-0.9-2.6-2.8-2.7l-1.6,0V40h4.4V28.2z"/>
	</g>
	<g>
		<path class="st0" d="M90.5,40h-4.3V25.6h4.3v5.5l4.4-4.9c0.4-0.4,0.8-0.6,1.3-0.6l3.9,0L95,31.4l5.7,8.6h-4.1
			c-1,0-1.4-0.6-2.2-1.7l-2.3-3.5l-1.5,1.7V40z"/>
		<path class="st0" d="M90.5,40h-4.3V25.6h4.3v5.5l4.4-4.9c0.4-0.4,0.8-0.6,1.3-0.6l3.9,0L95,31.4l-2.9,3.4l-1.5,1.7V40z"/>
		<polygon class="st0" points="90.5,36.5 90.5,31.1 90.5,25.6 86.2,25.6 86.2,40 90.5,40 		"/>
	</g>
</g>
</svg>
